<!--?xml version="1.0" encoding="UTF-8"?-->

<svg width="100%" height="100%" viewBox="0 0 229 62" version="1.1" xmlns="http://www.w3.org/2000/svg" xmlns:xlink="http://www.w3.org/1999/xlink">
    <style>/***************************************************
 * Generated by SVG Artista on 3/7/2024, 2:08:12 PM
 * MIT license (https://opensource.org/licenses/MIT)
 * W. https://svgartista.net
 **************************************************/

@-webkit-keyframes animate-svg-stroke-1{0%{stroke-dashoffset:102.38060760498047px;stroke-dasharray:102.38060760498047px}100%{stroke-dashoffset:0;stroke-dasharray:102.38060760498047px}}@keyframes animate-svg-stroke-1{0%{stroke-dashoffset:102.38060760498047px;stroke-dasharray:102.38060760498047px}100%{stroke-dashoffset:0;stroke-dasharray:102.38060760498047px}}@-webkit-keyframes animate-svg-fill-1{0%{fill:transparent}100%{fill:rgb(255,255,255)}}@keyframes animate-svg-fill-1{0%{fill:transparent}100%{fill:rgb(255,255,255)}}.svg-elem-1{-webkit-animation:animate-svg-stroke-1 1s cubic-bezier(0.47,0,0.745,0.715) 0s both,animate-svg-fill-1 0.7s cubic-bezier(0.47,0,0.745,0.715) 0.8s both;animation:animate-svg-stroke-1 1s cubic-bezier(0.47,0,0.745,0.715) 0s both,animate-svg-fill-1 0.7s cubic-bezier(0.47,0,0.745,0.715) 0.8s both}@-webkit-keyframes animate-svg-stroke-2{0%{stroke-dashoffset:139.20928955078125px;stroke-dasharray:139.20928955078125px}100%{stroke-dashoffset:0;stroke-dasharray:139.20928955078125px}}@keyframes animate-svg-stroke-2{0%{stroke-dashoffset:139.20928955078125px;stroke-dasharray:139.20928955078125px}100%{stroke-dashoffset:0;stroke-dasharray:139.20928955078125px}}@-webkit-keyframes animate-svg-fill-2{0%{fill:transparent}100%{fill:rgb(3,121,0)}}@keyframes animate-svg-fill-2{0%{fill:transparent}100%{fill:rgb(3,121,0)}}.svg-elem-2{-webkit-animation:animate-svg-stroke-2 1s cubic-bezier(0.47,0,0.745,0.715) 0.12s both,animate-svg-fill-2 0.7s cubic-bezier(0.47,0,0.745,0.715) 0.9s both;animation:animate-svg-stroke-2 1s cubic-bezier(0.47,0,0.745,0.715) 0.12s both,animate-svg-fill-2 0.7s cubic-bezier(0.47,0,0.745,0.715) 0.9s both}@-webkit-keyframes animate-svg-stroke-3{0%{stroke-dashoffset:149.02687072753906px;stroke-dasharray:149.02687072753906px}100%{stroke-dashoffset:0;stroke-dasharray:149.02687072753906px}}@keyframes animate-svg-stroke-3{0%{stroke-dashoffset:149.02687072753906px;stroke-dasharray:149.02687072753906px}100%{stroke-dashoffset:0;stroke-dasharray:149.02687072753906px}}@-webkit-keyframes animate-svg-fill-3{0%{fill:transparent}100%{fill:rgb(255,255,255)}}@keyframes animate-svg-fill-3{0%{fill:transparent}100%{fill:rgb(255,255,255)}}.svg-elem-3{-webkit-animation:animate-svg-stroke-3 1s cubic-bezier(0.47,0,0.745,0.715) 0.24s both,animate-svg-fill-3 0.7s cubic-bezier(0.47,0,0.745,0.715) 1s both;animation:animate-svg-stroke-3 1s cubic-bezier(0.47,0,0.745,0.715) 0.24s both,animate-svg-fill-3 0.7s cubic-bezier(0.47,0,0.745,0.715) 1s both}@-webkit-keyframes animate-svg-stroke-4{0%{stroke-dashoffset:156.5128173828125px;stroke-dasharray:156.5128173828125px}100%{stroke-dashoffset:0;stroke-dasharray:156.5128173828125px}}@keyframes animate-svg-stroke-4{0%{stroke-dashoffset:156.5128173828125px;stroke-dasharray:156.5128173828125px}100%{stroke-dashoffset:0;stroke-dasharray:156.5128173828125px}}@-webkit-keyframes animate-svg-fill-4{0%{fill:transparent}100%{fill:rgb(255,255,255)}}@keyframes animate-svg-fill-4{0%{fill:transparent}100%{fill:rgb(255,255,255)}}.svg-elem-4{-webkit-animation:animate-svg-stroke-4 1s cubic-bezier(0.47,0,0.745,0.715) 0.36s both,animate-svg-fill-4 0.7s cubic-bezier(0.47,0,0.745,0.715) 1.1s both;animation:animate-svg-stroke-4 1s cubic-bezier(0.47,0,0.745,0.715) 0.36s both,animate-svg-fill-4 0.7s cubic-bezier(0.47,0,0.745,0.715) 1.1s both}@-webkit-keyframes animate-svg-stroke-5{0%{stroke-dashoffset:115.80638122558594px;stroke-dasharray:115.80638122558594px}100%{stroke-dashoffset:0;stroke-dasharray:115.80638122558594px}}@keyframes animate-svg-stroke-5{0%{stroke-dashoffset:115.80638122558594px;stroke-dasharray:115.80638122558594px}100%{stroke-dashoffset:0;stroke-dasharray:115.80638122558594px}}@-webkit-keyframes animate-svg-fill-5{0%{fill:transparent}100%{fill:rgb(255,255,255)}}@keyframes animate-svg-fill-5{0%{fill:transparent}100%{fill:rgb(255,255,255)}}.svg-elem-5{-webkit-animation:animate-svg-stroke-5 1s cubic-bezier(0.47,0,0.745,0.715) 0.48s both,animate-svg-fill-5 0.7s cubic-bezier(0.47,0,0.745,0.715) 1.2000000000000002s both;animation:animate-svg-stroke-5 1s cubic-bezier(0.47,0,0.745,0.715) 0.48s both,animate-svg-fill-5 0.7s cubic-bezier(0.47,0,0.745,0.715) 1.2000000000000002s both}@-webkit-keyframes animate-svg-stroke-6{0%{stroke-dashoffset:145.99363708496094px;stroke-dasharray:145.99363708496094px}100%{stroke-dashoffset:0;stroke-dasharray:145.99363708496094px}}@keyframes animate-svg-stroke-6{0%{stroke-dashoffset:145.99363708496094px;stroke-dasharray:145.99363708496094px}100%{stroke-dashoffset:0;stroke-dasharray:145.99363708496094px}}@-webkit-keyframes animate-svg-fill-6{0%{fill:transparent}100%{fill:rgb(255,255,255)}}@keyframes animate-svg-fill-6{0%{fill:transparent}100%{fill:rgb(255,255,255)}}.svg-elem-6{-webkit-animation:animate-svg-stroke-6 1s cubic-bezier(0.47,0,0.745,0.715) 0.6s both,animate-svg-fill-6 0.7s cubic-bezier(0.47,0,0.745,0.715) 1.3s both;animation:animate-svg-stroke-6 1s cubic-bezier(0.47,0,0.745,0.715) 0.6s both,animate-svg-fill-6 0.7s cubic-bezier(0.47,0,0.745,0.715) 1.3s both}@-webkit-keyframes animate-svg-stroke-7{0%{stroke-dashoffset:161.7784423828125px;stroke-dasharray:161.7784423828125px}100%{stroke-dashoffset:0;stroke-dasharray:161.7784423828125px}}@keyframes animate-svg-stroke-7{0%{stroke-dashoffset:161.7784423828125px;stroke-dasharray:161.7784423828125px}100%{stroke-dashoffset:0;stroke-dasharray:161.7784423828125px}}@-webkit-keyframes animate-svg-fill-7{0%{fill:transparent}100%{fill:rgb(255,255,255)}}@keyframes animate-svg-fill-7{0%{fill:transparent}100%{fill:rgb(255,255,255)}}.svg-elem-7{-webkit-animation:animate-svg-stroke-7 1s cubic-bezier(0.47,0,0.745,0.715) 0.72s both,animate-svg-fill-7 0.7s cubic-bezier(0.47,0,0.745,0.715) 1.4000000000000001s both;animation:animate-svg-stroke-7 1s cubic-bezier(0.47,0,0.745,0.715) 0.72s both,animate-svg-fill-7 0.7s cubic-bezier(0.47,0,0.745,0.715) 1.4000000000000001s both}@-webkit-keyframes animate-svg-stroke-8{0%{stroke-dashoffset:110.74073028564453px;stroke-dasharray:110.74073028564453px}100%{stroke-dashoffset:0;stroke-dasharray:110.74073028564453px}}@keyframes animate-svg-stroke-8{0%{stroke-dashoffset:110.74073028564453px;stroke-dasharray:110.74073028564453px}100%{stroke-dashoffset:0;stroke-dasharray:110.74073028564453px}}@-webkit-keyframes animate-svg-fill-8{0%{fill:transparent}100%{fill:rgb(241,73,73)}}@keyframes animate-svg-fill-8{0%{fill:transparent}100%{fill:rgb(241,73,73)}}.svg-elem-8{-webkit-animation:animate-svg-stroke-8 1s cubic-bezier(0.47,0,0.745,0.715) 0.84s both,animate-svg-fill-8 0.7s cubic-bezier(0.47,0,0.745,0.715) 1.5s both;animation:animate-svg-stroke-8 1s cubic-bezier(0.47,0,0.745,0.715) 0.84s both,animate-svg-fill-8 0.7s cubic-bezier(0.47,0,0.745,0.715) 1.5s both}@-webkit-keyframes animate-svg-stroke-9{0%{stroke-dashoffset:161.77842712402344px;stroke-dasharray:161.77842712402344px}100%{stroke-dashoffset:0;stroke-dasharray:161.77842712402344px}}@keyframes animate-svg-stroke-9{0%{stroke-dashoffset:161.77842712402344px;stroke-dasharray:161.77842712402344px}100%{stroke-dashoffset:0;stroke-dasharray:161.77842712402344px}}@-webkit-keyframes animate-svg-fill-9{0%{fill:transparent}100%{fill:rgb(255,255,255)}}@keyframes animate-svg-fill-9{0%{fill:transparent}100%{fill:rgb(255,255,255)}}.svg-elem-9{-webkit-animation:animate-svg-stroke-9 1s cubic-bezier(0.47,0,0.745,0.715) 0.96s both,animate-svg-fill-9 0.7s cubic-bezier(0.47,0,0.745,0.715) 1.6s both;animation:animate-svg-stroke-9 1s cubic-bezier(0.47,0,0.745,0.715) 0.96s both,animate-svg-fill-9 0.7s cubic-bezier(0.47,0,0.745,0.715) 1.6s both}@-webkit-keyframes animate-svg-stroke-10{0%{stroke-dashoffset:134.52169799804688px;stroke-dasharray:134.52169799804688px}100%{stroke-dashoffset:0;stroke-dasharray:134.52169799804688px}}@keyframes animate-svg-stroke-10{0%{stroke-dashoffset:134.52169799804688px;stroke-dasharray:134.52169799804688px}100%{stroke-dashoffset:0;stroke-dasharray:134.52169799804688px}}@-webkit-keyframes animate-svg-fill-10{0%{fill:transparent}100%{fill:rgb(255,255,255)}}@keyframes animate-svg-fill-10{0%{fill:transparent}100%{fill:rgb(255,255,255)}}.svg-elem-10{-webkit-animation:animate-svg-stroke-10 1s cubic-bezier(0.47,0,0.745,0.715) 1.08s both,animate-svg-fill-10 0.7s cubic-bezier(0.47,0,0.745,0.715) 1.7000000000000002s both;animation:animate-svg-stroke-10 1s cubic-bezier(0.47,0,0.745,0.715) 1.08s both,animate-svg-fill-10 0.7s cubic-bezier(0.47,0,0.745,0.715) 1.7000000000000002s both}@-webkit-keyframes animate-svg-stroke-11{0%{stroke-dashoffset:98.97185516357422px;stroke-dasharray:98.97185516357422px}100%{stroke-dashoffset:0;stroke-dasharray:98.97185516357422px}}@keyframes animate-svg-stroke-11{0%{stroke-dashoffset:98.97185516357422px;stroke-dasharray:98.97185516357422px}100%{stroke-dashoffset:0;stroke-dasharray:98.97185516357422px}}@-webkit-keyframes animate-svg-fill-11{0%{fill:transparent}100%{fill:rgb(255,255,255)}}@keyframes animate-svg-fill-11{0%{fill:transparent}100%{fill:rgb(255,255,255)}}.svg-elem-11{-webkit-animation:animate-svg-stroke-11 1s cubic-bezier(0.47,0,0.745,0.715) 1.2s both,animate-svg-fill-11 0.7s cubic-bezier(0.47,0,0.745,0.715) 1.8s both;animation:animate-svg-stroke-11 1s cubic-bezier(0.47,0,0.745,0.715) 1.2s both,animate-svg-fill-11 0.7s cubic-bezier(0.47,0,0.745,0.715) 1.8s both}@-webkit-keyframes animate-svg-stroke-12{0%{stroke-dashoffset:161.7784423828125px;stroke-dasharray:161.7784423828125px}100%{stroke-dashoffset:0;stroke-dasharray:161.7784423828125px}}@keyframes animate-svg-stroke-12{0%{stroke-dashoffset:161.7784423828125px;stroke-dasharray:161.7784423828125px}100%{stroke-dashoffset:0;stroke-dasharray:161.7784423828125px}}@-webkit-keyframes animate-svg-fill-12{0%{fill:transparent}100%{fill:rgb(255,255,255)}}@keyframes animate-svg-fill-12{0%{fill:transparent}100%{fill:rgb(255,255,255)}}.svg-elem-12{-webkit-animation:animate-svg-stroke-12 1s cubic-bezier(0.47,0,0.745,0.715) 1.3199999999999998s both,animate-svg-fill-12 0.7s cubic-bezier(0.47,0,0.745,0.715) 1.9000000000000001s both;animation:animate-svg-stroke-12 1s cubic-bezier(0.47,0,0.745,0.715) 1.3199999999999998s both,animate-svg-fill-12 0.7s cubic-bezier(0.47,0,0.745,0.715) 1.9000000000000001s both}@-webkit-keyframes animate-svg-stroke-13{0%{stroke-dashoffset:161.7784423828125px;stroke-dasharray:161.7784423828125px}100%{stroke-dashoffset:0;stroke-dasharray:161.7784423828125px}}@keyframes animate-svg-stroke-13{0%{stroke-dashoffset:161.7784423828125px;stroke-dasharray:161.7784423828125px}100%{stroke-dashoffset:0;stroke-dasharray:161.7784423828125px}}@-webkit-keyframes animate-svg-fill-13{0%{fill:transparent}100%{fill:rgb(255,255,255)}}@keyframes animate-svg-fill-13{0%{fill:transparent}100%{fill:rgb(255,255,255)}}.svg-elem-13{-webkit-animation:animate-svg-stroke-13 1s cubic-bezier(0.47,0,0.745,0.715) 1.44s both,animate-svg-fill-13 0.7s cubic-bezier(0.47,0,0.745,0.715) 2s both;animation:animate-svg-stroke-13 1s cubic-bezier(0.47,0,0.745,0.715) 1.44s both,animate-svg-fill-13 0.7s cubic-bezier(0.47,0,0.745,0.715) 2s both}@-webkit-keyframes animate-svg-stroke-14{0%{stroke-dashoffset:134.5216827392578px;stroke-dasharray:134.5216827392578px}100%{stroke-dashoffset:0;stroke-dasharray:134.5216827392578px}}@keyframes animate-svg-stroke-14{0%{stroke-dashoffset:134.5216827392578px;stroke-dasharray:134.5216827392578px}100%{stroke-dashoffset:0;stroke-dasharray:134.5216827392578px}}@-webkit-keyframes animate-svg-fill-14{0%{fill:transparent}100%{fill:rgb(255,255,255)}}@keyframes animate-svg-fill-14{0%{fill:transparent}100%{fill:rgb(255,255,255)}}.svg-elem-14{-webkit-animation:animate-svg-stroke-14 1s cubic-bezier(0.47,0,0.745,0.715) 1.56s both,animate-svg-fill-14 0.7s cubic-bezier(0.47,0,0.745,0.715) 2.1s both;animation:animate-svg-stroke-14 1s cubic-bezier(0.47,0,0.745,0.715) 1.56s both,animate-svg-fill-14 0.7s cubic-bezier(0.47,0,0.745,0.715) 2.1s both}</style>
    <title>frederick-number-logo-final-@2x</title>
    <g id="frederick-number-logo-final" stroke="none" stroke-width="1" fill="none" fill-rule="evenodd">
        <g id="Text-Draft" transform="translate(48, 2)" fill-rule="nonzero" stroke-width="2">
            <path d="M131.420486,27 L131.420486,9.73237748 L126.232572,9.73237748 L126.232572,27 L131.420486,27 Z M118,0 L118,5.73476691 L126.232572,5.73476691 L131.420486,5.73476691 L140,5.73476691 L140,0 L118,0 Z" id="Letter-T" stroke="#6A6A6A" fill="#FFFFFF" class="svg-elem-1"></path>
            <path d="M91,10.807646 L91,15.4671444 L91.0011886,15.4671444 L91.0011886,27 L96.705853,27 L96.705853,15.4671444 L112.604041,15.4671444 L112.604041,9.73237748 L91.0011886,9.73237748 L91,10.807646 Z M115,5.73476691 L115,0 L91.0011886,0 L91.0011886,5.73476691 L115,5.73476691 Z" id="Shape" stroke="#037900" fill-opacity="0.25" fill="#037900" class="svg-elem-2"></path>
            <path d="M24.8624037,11.6398682 C24.4069945,8.46677046 22.8021047,5.54097338 20.3424093,3.40486746 C18.0860654,1.44318624 15.239151,0.267611252 12.2473338,0.0442037194 L0,0 L0,5.74765525 L11.5678729,5.74765525 C11.9794458,5.76677047 12.3849308,5.81575267 12.7831088,5.89460186 C13.9435491,6.1263716 15.0358002,6.60902633 15.9916717,7.32106184 C17.5490727,8.47871702 18.6169702,10.1429206 18.9993186,12.0042478 C19.1028209,12.5084067 19.1551806,13.0280971 19.1551806,13.5489816 C19.1551806,14.0877872 19.0979504,14.6289817 18.9859244,15.1570349 C18.3076816,18.3253535 15.6738595,20.772079 12.4202431,21.2654867 L5.84482051,21.2654867 L5.84482051,9.74508776 L0,9.74508776 L0,27 L12.813551,27 L12.8793052,26.9916372 C19.028543,26.2592923 23.951586,21.5474334 24.852662,15.5333624 C24.9500754,14.883451 25,14.2156192 25,13.5489822 C25,12.9062389 24.9537282,12.2634956 24.862403,11.6398676 L24.8624037,11.6398682 Z" id="Path" stroke="#6A6A6A" fill="#FFFFFF" class="svg-elem-3"></path>
            <path d="M53.0078715,25.3687261 L45.312319,12.7296427 C45.3587132,12.6950868 45.4039185,12.6605316 45.4479341,12.6259757 L45.477674,12.6033359 C45.5097931,12.5795044 45.5419123,12.5544812 45.5728417,12.529458 C45.6299428,12.4841777 45.6870439,12.4377064 45.742955,12.391235 C45.8202794,12.3280816 45.8952245,12.2661192 45.96898,12.2041568 C45.9784968,12.1946241 45.9892037,12.1862831 45.9987205,12.177942 C46.0570109,12.1278956 46.1153016,12.075466 46.1735923,12.024228 C46.3413266,11.8752806 46.5114398,11.7168006 46.6886903,11.5416384 C48.5397153,9.71256373 49.8137819,7.40804891 50.3740851,4.87951722 C50.5858347,3.92744516 50.6940886,2.9408172 50.6940886,1.94823214 C50.6940886,1.63603805 50.6833821,1.31550353 50.6607798,0.997351735 L50.5905926,0 L28,0 L28,5.71839014 L40.2327046,5.71839014 L40.2327046,5.71958181 L44.0073204,5.71958181 C43.6516288,6.35946043 43.2019581,6.95048372 42.6773426,7.47001256 C41.9873718,8.1527875 41.1927157,8.69138112 40.314788,9.07268639 C40.2874274,9.08460245 40.2600662,9.09651787 40.232706,9.10724226 C39.2881596,9.50403859 38.281754,9.70541559 37.2384705,9.70541559 L28,9.70541559 L28,27 L33.7101027,27 L33.7101027,15.4249968 L37.2384705,15.4249968 C37.3276907,15.4249968 37.415722,15.4238051 37.5049422,15.4226135 L37.5120798,15.4226135 L37.5227863,15.4214218 L37.5894042,15.4202301 L37.6536425,15.4178468 L37.6619697,15.4178468 C37.7321569,15.4154634 37.8011541,15.4130807 37.8701513,15.4095057 C37.9022705,15.4095057 37.929631,15.4071224 37.9498543,15.4059307 C38.0378849,15.4011646 38.1259155,15.396398 38.2127567,15.3904403 L38.2710475,15.3904403 L38.3150631,15.3820992 C38.4042833,15.3749498 38.4982621,15.3666088 38.6017581,15.3558844 C38.690978,15.3475433 38.7813878,15.3368189 38.8717977,15.3260945 C38.9110547,15.3213285 38.9503114,15.3165618 38.9883792,15.3106041 C39.0752204,15.3010714 39.1608717,15.2879643 39.2465226,15.2748571 L39.2572294,15.2736655 C39.2893486,15.2688994 39.3226574,15.2641327 39.3547769,15.258175 C39.429722,15.2474506 39.4975295,15.2355346 39.5581992,15.2248102 C39.7295028,15.195021 39.9067536,15.1616568 40.0816254,15.1235259 L46.9991769,26.485236 L47.3120425,27 L54,27 L53.0078715,25.3687261 Z" id="Path" stroke="#6A6A6A" fill="#FFFFFF" class="svg-elem-4"></path>
            <path d="M58,26.9296947 L65.1413965,26.9296947 L70.1367159,15.0140104 L67.0535638,9.13164337 L58,26.9296947 Z M75.8776927,4.48246986 L73.9280017,0.550342745 L73.7068517,0 L72.5634166,0 L72.3343328,0.552557569 L70.3856337,4.48246986 L70.1466332,4.96526568 L70.1367159,4.98519792 L73.1316632,10.9880312 L73.2189329,11.1640964 L75.4086162,15.5801268 L81.2502441,26.9296947 L87,27 L75.8776927,4.48246986 Z" id="Shape" stroke="#6A6A6A" fill="#FFFFFF" class="svg-elem-5"></path>
        </g>
        <g id="Text-Seventeen" transform="translate(3, 33)" fill-rule="nonzero" stroke-width="2">
            <path d="M14.451108,9.8460719 L7.4221566,9.8460719 C6.19596274,9.8460719 5.19940908,8.82762734 5.19940908,7.57696407 C5.19940908,6.3263008 6.19596274,5.3078562 7.4221566,5.3078562 L15.5592321,5.3078562 C16.3434766,5.58209567 16.9089121,6.34288848 16.9089121,7.23637721 L22,7.23637721 C22,6.56847187 21.9111769,5.92157719 21.7454458,5.3078562 C20.9189564,2.24809833 18.1730183,0 14.9125554,0 L7.4221566,0 C4.76612489,0 2.29640566,1.46297775 0.974888988,3.81833891 C0.336878068,4.95731639 0,6.25663516 0,7.57696407 C0,8.89729294 0.336878634,10.1966117 0.974888988,11.3355892 C1.26193963,11.8475762 1.60315086,12.3164371 1.98877419,12.7377478 C3.37744982,14.2571217 5.34239331,15.1539281 7.42215717,15.1539281 L14.4511085,15.1539281 C15.6762191,15.1539281 16.6738555,16.1723727 16.6738555,17.423036 C16.6738555,18.6736992 15.6762191,19.6921438 14.4511085,19.6921438 L6.44076843,19.6921438 C5.65652396,19.4179043 5.09108846,18.6571115 5.09108846,17.7636228 L0,17.7636228 C0,18.4315281 0.0888236451,19.0784228 0.254554734,19.6921438 C1.08104416,22.7519017 3.82698226,25 7.08744513,25 L14.4511085,25 C17.1060569,25 19.5757767,23.5370222 20.8972928,21.1816611 C21.5353038,20.0426836 21.8732651,18.7433648 21.8732651,17.423036 C21.8732651,16.1027071 21.5353038,14.8033883 20.8972928,13.6644108 C19.5757762,11.3090497 17.1060569,9.8460719 14.4511085,9.8460719 L14.451108,9.8460719 Z" id="Letter-S" stroke="#444444" fill="#FFFFFF" class="svg-elem-6"></path>
            <path d="M25.0010896,0 L25,0.995619018 L25,5.30996925 L47,5.30996925 L47,0 L25.0010896,0 Z M30.2306243,14.3214303 L44.805774,14.3214303 L44.805774,9.01146102 L30.2306243,9.01146102 L25.0010896,8.97827353 L25.0010896,19.6900308 L25,20.6856498 L25,25 L47,25 L47,19.6900308 L30.2306249,19.6900308 L30.2306243,14.3214303 Z" id="Letter-E" stroke="#444444" fill="#FFFFFF" class="svg-elem-7"></path>
            <path d="M56.7070686,0.0801059913 L50,0.0801059913 L58.9776674,16.1310669 L62.3433346,10.1122336 L56.7070686,0.0801059913 Z M72.2436247,0.0801065668 L61.1023148,19.9304633 L63.7985117,25 L65.2390829,25 L79,0 L72.2436247,0.0801065668 Z" id="Letter-V" stroke="#F14949" fill-opacity="0.25" fill="#F14949" class="svg-elem-8"></path>
            <path d="M81.0010893,0 L81,0.995619018 L81,5.30996925 L103,5.30996925 L103,0 L81.0010893,0 Z M86.230624,14.3214303 L100.805774,14.3214303 L100.805774,9.01146102 L86.230624,9.01146102 L81.0010893,8.97827353 L81.0010893,19.6900308 L81,20.6856498 L81,25 L103,25 L103,19.6900308 L86.2306247,19.6900308 L86.230624,14.3214303 Z" id="Letter-E" stroke="#444444" fill="#FFFFFF" class="svg-elem-9"></path>
            <path d="M106,24.9670488 L111.242464,24.9670488 L111.242464,16.6183386 L106,11.3472608 L106,24.9670488 Z M120.757537,0.135099835 L120.757537,13.5319187 L107.301879,0 L106.001092,0 L106.001092,0.638152959 L106,3.00733709 L106,6.14977343 L111.242464,11.4208513 L114.831367,15.0300953 L121.044779,21.2776241 L124.746177,25 L126,25 L126,0.135099835 L120.757537,0.135099835 Z" id="Letter-N" stroke="#444444" fill="#FFFFFF" class="svg-elem-10"></path>
            <path d="M142.420486,25 L142.420486,9.01376378 L137.232572,9.01376378 L137.232572,25 L142.420486,25 Z M129,0 L129,5.31067416 L137.232572,5.31067416 L137.232572,5.31178063 L142.420486,5.31178063 L142.420486,5.31067416 L151,5.31067416 L151,0 L129,0 Z" id="Letter-T" stroke="#444444" fill="#FFFFFF" class="svg-elem-11"></path>
            <path d="M154.00109,0 L154,0.995619018 L154,5.30996925 L176,5.30996925 L176,0 L154.00109,0 Z M159.230624,14.3214303 L173.805774,14.3214303 L173.805774,9.01146102 L159.230624,9.01146102 L154.00109,8.97827353 L154.00109,19.6900308 L154,20.6856498 L154,25 L176,25 L176,19.6900308 L159.230625,19.6900308 L159.230624,14.3214303 Z" id="Letter-E" stroke="#444444" fill="#FFFFFF" class="svg-elem-12"></path>
            <path d="M179.00109,0 L179,0.995619018 L179,5.30996925 L201,5.30996925 L201,0 L179.00109,0 Z M184.230624,14.3214303 L198.805774,14.3214303 L198.805774,9.01146102 L184.230624,9.01146102 L179.00109,8.97827353 L179.00109,19.6900308 L179,20.6856498 L179,25 L201,25 L201,19.6900308 L184.230625,19.6900308 L184.230624,14.3214303 Z" id="Letter-E" stroke="#444444" fill="#FFFFFF" class="svg-elem-13"></path>
            <path d="M204,24.9670488 L209.242464,24.9670488 L209.242464,16.6183386 L204,11.3472608 L204,24.9670488 Z M218.757537,0.135099835 L218.757537,13.5319187 L205.301879,0 L204.001092,0 L204.001092,0.638152959 L204,3.00733709 L204,6.14977343 L209.242464,11.4208513 L212.831367,15.0300953 L219.044779,21.2776241 L222.746177,25 L224,25 L224,0.135099835 L218.757537,0.135099835 Z" id="Letter-N" stroke="#444444" fill="#FFFFFF" class="svg-elem-14"></path>
        </g>
    </g>
</svg>